<svg xmlns="http://www.w3.org/2000/svg" viewBox="0 0 1000.5 159.49"><defs><style>.cls-1{fill:#fff;}.cls-2{fill:none;stroke:#fff;stroke-miterlimit:10;}</style></defs><g id="Layer_2" data-name="Layer 2"><g id="Layer_1-2" data-name="Layer 1"><path class="cls-1" d="M148,90.11l6.44,6.44v38.62l-25.75-25.75H115.86L103,96.55l12.88-12.88V45.06L103,32.18H45.05v83.68l6.44,6.43h77.24L154.48,148,148,154.48H104.59L98.16,148H57.93l-6.44,6.44H29L6.44,132V90.11L0,83.67V45.06l6.44-6.44V12.87L0,6.44,6.44,0H51.49l6.44,6.44H96.55L103,0h22.53L148,22.53V90.11ZM51.49,51.49V38.62H64.36Z"/><path class="cls-1" d="M300.36,0l25.75,25.75v6.43l-6.44,6.44V90.11L303.58,106.2l22.53,22.53v25.75H306.8L265,112.73H223.13V96.55h22.43l6.34,6.34H265l22.53-22.43V38.62l-6.44-6.44H197.38L171.63,6.44,178.07,0h45.06l6.43,6.44h38.62L274.62,0ZM178.07,90.11l-6.44-6.44V45.06l6.44-6.44h38.62V148l-6.44,6.44H187.73l-9.66-9.66Zm45.06-51.49H236L223.13,51.49Z"/><path class="cls-1" d="M347.56,64.36h47.2l4.29,4.3h64.49l17,17.16-4.29,4.29H416.22l-4.29-4.29h-51.5L343.27,68.66Z"/><path class="cls-1" d="M626.47,0l25.74,25.75v6.43l-6.43,6.44H613.6l-6.44-6.44H523.48L497.74,6.44,504.17,0h45.06l6.44,6.44h38.62L600.72,0Zm1.61,72.41,24.13,24.14v48.27l-9.65,9.66H600.72L594.29,148H555.67l-6.44,6.44h-35.4L507.39,148l-3.22-3.22V90.11l-6.43-6.44V45.06l6.43-6.44h38.62v83.67H613.6V90.11l-8-8H587.85l-6.34,6.34H558.79l-3.22-3.22,12.88-12.87ZM607.16,103v12.88H594.29Z"/><path class="cls-1" d="M798.1,0l25.75,25.75v6.43l-6.44,6.44H785.23l-6.44-6.44H695.12L669.37,6.44,675.81,0h45.05l6.44,6.44h38.62L772.36,0Zm19.31,115.86,6.44,6.43v6.44L798.1,154.48H772.36L765.92,148H727.3l-6.44,6.44h-35.4L679,148l-3.22-3.22V90.11l-6.44-6.44V45.06l6.44-6.44h38.62V66H727.3l6.34,6.35h41.93l9.66,9.75L782,85.28H762.7l-3.22-3.21H714.43v40.22h64.36l6.44-6.43ZM733.74,38.62,720.86,51.49V38.62Z"/><path class="cls-1" d="M985.83,0l9.65,9.65V32.18l-6.43,6.44V90.11l6.43,6.44v48.27l-9.65,9.66H963.35L956.86,148l-19.31-19.29V51.49l-19.3-19.31h-51.5L841,6.44,847.44,0H907l43.5,43.5v78.79l6.38,6.39V0ZM847.44,144.82V90.11L841,83.67V45.06l6.43-6.44h38.62V154.48h-29Zm57.93-106.2L892.5,51.49V38.62Z"/><path class="cls-2" d="M152.56,94.63l6.43,6.43v38.62l-25.74-25.74H120.37L107.5,101.06l12.87-12.87V49.57L107.5,36.7H49.57v83.67L56,126.81h77.24L159,152.56,152.56,159H109.11l-6.44-6.43H62.45L56,159H33.48L11,136.47V94.63L4.52,88.19V49.57L11,43.14V17.39L4.52,11,11,4.52H56L62.45,11h38.62l6.43-6.43H130l22.53,22.53V94.63ZM56,56V43.14H68.88Z"/><path class="cls-2" d="M304.88,4.52l25.75,25.74V36.7l-6.44,6.44V94.63L308.1,110.72l22.53,22.53V159H311.32l-41.84-41.74H227.64V101.06h22.44l6.34,6.35h13.06L292,85V43.14l-6.44-6.44H201.9L176.15,11l6.44-6.43h45L234.08,11H272.7l6.44-6.43ZM182.59,94.63l-6.44-6.44V49.57l6.44-6.43h38.62V152.56L214.77,159H192.24l-9.65-9.65Zm45-51.49h12.88L227.64,56Z"/><path class="cls-2" d="M352.08,68.88h47.2l4.29,4.29h64.49l17,17.17-4.29,4.29H420.73l-4.29-4.29H365L347.79,73.17Z"/><path class="cls-2" d="M631,4.52l25.74,25.74V36.7l-6.43,6.44H618.11l-6.43-6.44H528L502.26,11l6.43-6.43h45.06L560.19,11H598.8l6.44-6.43Zm1.61,72.41,24.13,24.13v48.28L647.08,159H605.24l-6.44-6.43H560.19L553.75,159h-35.4l-6.44-6.43-3.22-3.22V94.63l-6.43-6.44V49.57l6.43-6.43h38.62v83.67h70.8V94.63l-8-7.95H592.37L586,93H563.31l-3.22-3.22L573,76.93ZM611.68,107.5v12.87H598.8Z"/><path class="cls-2" d="M802.62,4.52l25.75,25.74V36.7l-6.44,6.44H789.75l-6.44-6.44H699.64L673.89,11l6.44-6.43h45L731.82,11h38.62l6.43-6.43Zm19.31,115.85,6.44,6.44v6.44L802.62,159H776.87l-6.43-6.43H731.82L725.38,159H690l-6.44-6.43-3.21-3.22V94.63l-6.44-6.44V49.57l6.44-6.43H719V70.49h12.87l6.34,6.34h41.93l9.66,9.75-3.22,3.22H767.22L764,86.58H719v40.23h64.36l6.44-6.44ZM738.26,43.14,725.38,56V43.14Z"/><path class="cls-2" d="M990.35,4.52l9.65,9.65V36.7l-6.44,6.44V94.63l6.44,6.43v48.28L990.35,159H967.87l-6.49-6.45-19.31-19.29V56L922.76,36.7H871.27L845.52,11,852,4.52H911.5L955,48v78.8l6.39,6.39V4.52ZM852,149.34V94.63l-6.44-6.44V49.57L852,43.14h38.62V159h-29Zm57.93-106.2L897,56V43.14Z"/></g></g></svg>