<svg xmlns="http://www.w3.org/2000/svg" viewBox="0 0 60 28.85"><defs><style>.cls-1{fill:#fff;}</style></defs><g id="Layer_2" data-name="Layer 2"><g id="Layer_1-2" data-name="Layer 1"><path class="cls-1" d="M40.5,7V9.35l.63-.64v1.58l2.64-2.65H42.2L42.83,7Zm2.84.81-2,2V8.53L42,7.82Z"/><path class="cls-1" d="M39.33,7h-7L31.15,8.18v7l.63.63V16l.54.53v9.8l.63.64V27l1.81,1.81h4.16l1.22-1.22v-20h-.81Zm.63.81V27.55l-1.12,1.12h-4L34.2,28h4l1.17-1.17v-19Z"/><path class="cls-1" d="M12.62,7.64H11.05L11.68,7H9.35V9.35L10,8.71v1.58Zm-.43.18-2,2V8.53l.71-.71Z"/><path class="cls-1" d="M24,22.83l-.64-.63H9.47L9,21.71V6.65H19.38L21,8.31v6.88l-2.34,2.33.66.66-.06.07,2.42,2.42h2.34l4.8,4.8V18.21L27.68,17V4.77L23.54.63h-.13L22.78,0H18.69L17.52,1.17H10.64L10.11.63H10L9.35,0H1.17L0,1.17l.66.66L.6,1.89l.57.57V7L0,8.18v7l.63.63V16l.54.53V24l.63.63v.13l4.14,4.14h4.17l1.16-1.17H18.5l1.17,1.17h8l1.26-1.26-4.77-4.76ZM8.81,6.47V21.66L8.18,21V5.84H18.69l.63.63ZM21.16,19.86h2.2l.64.63H21.79ZM28.67,25,28,24.4V17.65l.63.63ZM27.5,17l-.63-.64V4.22l.63.63ZM11.2,27.5,10,28.67H6L5.38,28h4l1.16-1.17h7.3l.64.63Zm16.35,1.17H19.74L19.11,28h7.76L28,26.93l.66.66Z"/><path class="cls-1" d="M58.83,7.77,60,6.6V5.36L55.27.63h-.12L54.51,0H49.84L48.67,1.17H41.79L41.26.63h-.13L40.5,0H32.32L31.15,1.17l.66.66-.06.06,4.76,4.76H51.7l.48.49V14.6l-4.09,4.07H45.85l-.52-.51H45.2l-.63-.64H40.5v2.94h.63v.81h7.64l7.6,7.58H60v-4.8L56,20l2.88-2.88ZM36,5.84H51l.63.63H36.58Zm5.36,14.62h6.78l.63.63H41.31Zm18.51,8.21H56.44L55.81,28h3.38V23.49l.63.63ZM58.65,17l-2.89,2.89-.66-.65L58,16.35V7l1.17-1.17v-1l.63.63v1.1L58.65,7.69Z"/></g></g></svg>